<svg version="1.1"
      xmlns="http://www.w3.org/2000/svg"
      xmlns:xlink="http://www.w3.org/1999/xlink"  id="snapshot-81859" width="250" height="250" viewBox="0 0 250 250"><desc>This image was made on Patterninja.com</desc><defs>
<!-- image 31278 -->
<g id="transformed-31278" data-image="31278" transform="translate(-25.567999999999987, -27) rotate(0, 26.567999999999987, 27)"><g><svg version="1.1" width="53.135999999999974px" height="54px" viewBox="0 0 53.135999999999974 54"><g id="original-31278"><svg xmlns="http://www.w3.org/2000/svg" viewBox="0 0 70 71" xmlns:xlink="http://www.w3.org/1999/xlink" version="1.1" preserveAspectRatio="xMidYMid meet">
  <rect width="56" height="50" x="7" y="21" fill-rule="evenodd" rx="3" fill="rgba(207, 207, 209, 1)" stroke="none"/>
  <path fill-rule="evenodd" d="M35 21h25.009A2.991 2.991 0 0 1 63 23.997v44.006A2.996 2.996 0 0 1 60.009 71H35V21z" fill="rgba(176, 176, 176, 1)" stroke="none"/>
  <path fill-rule="evenodd" d="M63 57l7-4V38l-7-4v23zM0 38v15l7 4V34l-7 4z" fill="rgba(229, 229, 231, 1)" stroke="none"/>
  <path fill-rule="evenodd" d="M42 7a7 7 0 1 0-14 0 7 7 0 0 0 5 6.706V21h4v-7.294A7 7 0 0 0 42 7" fill="rgba(206, 206, 206, 1)" stroke="none"/>
  <path fill-rule="evenodd" d="M45 41a5 5 0 1 0 .001 10.001A5 5 0 0 0 45 41m-20 0a5 5 0 1 0 .001 10.001A5 5 0 0 0 25 41" fill="rgba(255, 255, 255, 1)" stroke="none"/>
</svg>
</g></svg></g></g>
<!-- /image 31278 -->

<!-- image 51361 -->
<g id="transformed-51361" data-image="51361" transform="translate(169, 50.89599999999999) rotate(0, 28, 27.10400000000001)"><g><svg version="1.1" width="56px" height="54.20800000000002px" viewBox="0 0 56 54.20800000000002"><g id="original-51361"><svg xmlns="http://www.w3.org/2000/svg" viewBox="0 0 70 68" xmlns:xlink="http://www.w3.org/1999/xlink" version="1.1" preserveAspectRatio="xMidYMid meet">
  <path fill-rule="evenodd" d="M14 65c9.113 0 11-2.853 11-8 0-.169-.02-.832-.025-1h20.05c0 .168-.025.831-.025 1 0 5.147 1.887 8 11 8v3H14v-3z" fill="rgba(206, 206, 206, 1)" stroke="none"/>
  <rect width="70" height="54" y="2" fill-rule="evenodd" rx="6" fill="rgba(202, 202, 202, 1)" stroke="none"/>
  <path fill-rule="evenodd" d="M70 47V5.998A5.993 5.993 0 0 0 64.002 0H5.998A5.995 5.995 0 0 0 0 5.998V47h70z" fill="rgba(239, 239, 239, 1)" stroke="none"/>
  <circle cx="35" cy="52" r="3" fill-rule="evenodd" fill="rgba(231, 231, 231, 1)" stroke="none"/>
</svg>
</g></svg></g></g>
<!-- /image 51361 -->

<!-- image 58770 -->
<g id="transformed-58770" data-image="58770" transform="translate(22, 87.00000000000001) rotate(0, 21, 20.99999999999999)"><g><svg version="1.1" width="42px" height="41.99999999999998px" viewBox="0 0 42 41.99999999999998"><g id="original-58770"><svg xmlns="http://www.w3.org/2000/svg" viewBox="0 0 66 66" xmlns:xlink="http://www.w3.org/1999/xlink" version="1.1" preserveAspectRatio="xMidYMid meet">
  <path fill-rule="evenodd" d="M8.251 35.121l22.628 22.628-4.95 7.778L.473 40.071z" fill="rgba(125, 125, 125, 1)" stroke="none"/>
  <path fill-rule="evenodd" d="M11.08 54.92a5.881 5.881 0 0 1 .174 8.311c-2.577 2.577-9.367 2.3-10.074 1.589-.707-.711-.988-7.5 1.589-10.074a5.881 5.881 0 0 1 8.311.174z" fill="rgba(190, 190, 190, 1)" stroke="none"/>
  <path fill-rule="evenodd" d="M.473 27.343l1.414-1.414s10.629-2.055 20.551-11.977C42.065-5.675 64.82 1.18 64.82 1.18s6.855 22.755-12.772 42.382c-9.922 9.922-11.977 20.551-11.977 20.551l-1.414 1.414L.473 27.343z" fill="rgba(197, 197, 197, 1)" stroke="none"/>
  <path fill-rule="evenodd" d="M47.142 18.858a10 10 0 1 1-14.142 0c3.905-3.905 10.237-3.905 14.142 0z" fill="rgba(132, 132, 132, 1)" stroke="none"/>
  <path fill-rule="evenodd" d="M45.021 20.979a7 7 0 1 1-9.9 9.899 7 7 0 0 1 9.9-9.899z" fill="rgba(209, 209, 209, 1)" stroke="none"/>
</svg>
</g></svg></g></g>
<!-- /image 58770 -->

<!-- image 34852 -->
<g id="transformed-34852" data-image="34852" transform="translate(110, -13.800000000000008) rotate(0, 25, 23.800000000000008)"><g><svg version="1.1" width="50px" height="47.600000000000016px" viewBox="0 0 50 47.600000000000016"><g id="original-34852"><svg xmlns="http://www.w3.org/2000/svg" viewBox="0 0 66 63" xmlns:xlink="http://www.w3.org/1999/xlink" version="1.1" preserveAspectRatio="xMidYMid meet">
  <path fill-rule="evenodd" d="M60 63H6a6 6 0 0 1-6-6c0-22.091 15-28 33-28s33 5.909 33 28a6 6 0 0 1-6 6z" fill="rgba(185, 185, 185, 1)" stroke="none"/>
  <path fill-rule="evenodd" d="M19 31l15 6-6 9z" fill="rgba(255, 255, 255, 1)" stroke="none"/>
  <path fill-rule="evenodd" d="M48 31l-15 6 6 9z" fill="rgba(255, 255, 255, 1)" stroke="none"/>
  <circle cx="33" cy="19" r="18" fill-rule="evenodd" fill="rgba(234, 234, 234, 1)" stroke="none"/>
  <path fill-rule="evenodd" d="M51.96 19.785A30.636 30.636 0 0 1 48.5 20c-9.794 0-18.109-4.594-21.2-11h-.628a18.955 18.955 0 0 1-7 6.692 21.2 21.2 0 0 1-5.625 2.27A18.984 18.984 0 0 1 26.952 1h.094c.93-.311 1.883-.554 2.849-.725l.184-.028c.412-.067.828-.121 1.249-.163A19.254 19.254 0 0 1 33 0a19.009 19.009 0 0 1 18.614 15.171A19.09 19.09 0 0 1 52 19c0 .265-.029.523-.04.785z" fill="rgba(199, 199, 199, 1)" stroke="none"/>
</svg>
</g></svg></g></g>
<!-- /image 34852 -->

<!-- image 73049 -->
<g id="transformed-73049" data-image="73049" transform="translate(78, 162.552) rotate(0, 32, 24.447999999999997)"><g><svg version="1.1" width="64px" height="48.895999999999994px" viewBox="0 0 64 48.895999999999994"><g id="original-73049"><svg xmlns="http://www.w3.org/2000/svg" viewBox="0 0 68 52" xmlns:xlink="http://www.w3.org/1999/xlink" version="1.1" preserveAspectRatio="xMidYMid meet">
  <circle cx="52" cy="42" r="10" fill-rule="evenodd" fill="rgba(184, 183, 183, 1)" stroke="none"/>
  <circle cx="52" cy="42" r="5" fill-rule="evenodd" fill="rgba(162, 162, 162, 1)" stroke="none"/>
  <circle cx="16" cy="42" r="10" fill-rule="evenodd" fill="rgba(184, 181, 181, 1)" stroke="none"/>
  <circle cx="16" cy="42" r="5" fill-rule="evenodd" fill="rgba(165, 165, 165, 1)" stroke="none"/>
  <path fill-rule="evenodd" d="M62.9 36a11.983 11.983 0 0 0-21.8 0H26.9a11.983 11.983 0 0 0-21.8 0H2V10C2 4.477 6.477 0 12 0h27l10 14h7c5.523 0 10 4.477 10 10v12h-3.1z" fill="rgba(212, 212, 212, 1)" stroke="none"/>
  <path fill-rule="evenodd" d="M65.95 23c.033.329.05.663.05 1v5h-4.002A2 2 0 0 1 60 27.002v-2.004c0-1.104.887-1.998 1.998-1.998h3.953z" fill="rgba(231, 231, 231, 1)" stroke="none"/>
  <path fill-rule="evenodd" d="M41.857 4L49 14h.5H26V4h15.857z" fill="rgba(179, 179, 179, 1)" stroke="none"/>
  <path fill-rule="evenodd" d="M15 14H8V9.5C8 7.738 10 4 13 4h9v10h-7z" fill="rgba(180, 178, 178, 1)" stroke="none"/>
  <path fill-rule="evenodd" d="M2 46a2 2 0 0 1-2-2v-6a2 2 0 0 1 2-2h3.1A11.926 11.926 0 0 0 4 41v5H2z" fill="rgba(153, 153, 153, 1)" stroke="none"/>
  <path fill-rule="evenodd" d="M28 46a48.59 48.59 0 0 0 0-5c0-1.727-.376-3.433-1.1-5h14.2a11.926 11.926 0 0 0-1.1 5v5H28z" fill="rgba(153, 153, 153, 1)" stroke="none"/>
  <path fill-rule="evenodd" d="M68 44a2 2 0 0 1-2 2h-2v-5c0-1.727-.376-3.433-1.1-5H66a2 2 0 0 1 2 2v6z" fill="rgba(153, 153, 153, 1)" stroke="none"/>
</svg>
</g></svg></g></g>
<!-- /image 73049 -->

<!-- image 81381 -->
<g id="transformed-81381" data-image="81381" transform="translate(198.664, 147) rotate(0, 24.336, 26)"><g><svg version="1.1" width="48.672px" height="52px" viewBox="0 0 48.672 52"><g id="original-81381"><svg xmlns="http://www.w3.org/2000/svg" viewBox="0 0 60 64" xmlns:xlink="http://www.w3.org/1999/xlink" version="1.1" preserveAspectRatio="xMidYMid meet">
  <path fill-rule="evenodd" d="M30 63.99L0 46V15L30 0l30 15v31z" fill="rgba(200, 200, 200, 1)" stroke="none"/>
  <path fill-rule="evenodd" d="M0 30.5V15l30 15v33.99L0 46z" fill="rgba(255, 255, 255, 0.382)" stroke="none"/>
  <path fill-rule="evenodd" d="M60 30.5V15L30 30v33.99L60 46z" fill="rgba(0, 0, 0, 0.1)" stroke="none"/>
</svg>
</g></svg></g></g>
<!-- /image 81381 -->

<!-- image 90148 -->
<g id="transformed-90148" data-image="90148" transform="translate(101, 86) rotate(0, 24, 24)"><g><svg version="1.1" width="48px" height="48px" viewBox="0 0 48 48"><g id="original-90148"><svg xmlns="http://www.w3.org/2000/svg" viewBox="0 0 65 65" xmlns:xlink="http://www.w3.org/1999/xlink" version="1.1" preserveAspectRatio="xMidYMid meet">
  <path fill-rule="evenodd" d="M50 51a3 3 0 0 1 0-6h5a5 5 0 0 0 0-10h-5a3 3 0 0 1 0-6h4.887C60.463 29 65 34.21 65 40s-4.537 11-10.113 11H50z" fill="rgba(101, 101, 101, 0.153)" stroke="none"/>
  <path fill-rule="evenodd" d="M36 65H18C8.059 65 0 56.941 0 47V29a4 4 0 0 1 4-4h46a4 4 0 0 1 4 4v18c0 9.941-8.059 18-18 18z" fill="rgba(104, 104, 104, 0.153)" stroke="none"/>
  <path fill-rule="evenodd" d="M33 61H21c-9.941 0-16-4.059-16-14V35c24.283 0 25.284 4 44 4v8c0 9.941-6.059 14-16 14z" fill="rgba(79, 79, 79, 0.153)" stroke="none"/>
  <path fill-rule="evenodd" d="M23 65h-5C8.059 65 0 56.941 0 47V29a4 4 0 0 1 4-4h24v40h-5z" fill="rgba(255, 255, 255, 0.153)" stroke="none"/>
  <path fill-rule="evenodd" d="M25.309 20c.035.007.83-1.647.844-1.675 2-4.969-5.291-9.3-2.752-15.565A5 5 0 0 1 26.962 0c-.988 4.052.908 4.792 2.956 9.3 2.968 6.376-.109 10.049-4.609 10.7zm13.885 0c.035.007.829-1.647.843-1.675 2-4.969-5.291-9.3-2.752-15.565A5 5 0 0 1 40.846 0c-.987 4.052.908 4.792 2.957 9.3 2.967 6.376-.11 10.049-4.609 10.7zm-27.769 0c.035.007.83-1.647.844-1.675 2-4.969-5.291-9.3-2.753-15.565A5 5 0 0 1 13.077 0c-.987 4.052.908 4.792 2.957 9.3 2.966 6.376-.11 10.049-4.609 10.7z" fill="rgba(87, 87, 87, 0.153)" stroke="none"/>
</svg>
</g></svg></g></g>
<!-- /image 90148 -->
</defs><rect x="0" y="0" width="250" height="250" fill="rgba(249, 249, 249, 1)"></rect><use xlink:href="#transformed-31278" transform="translate(-250, -250)"></use><use xlink:href="#transformed-31278" transform="translate(0, -250)"></use><use xlink:href="#transformed-31278" transform="translate(250, -250)"></use><use xlink:href="#transformed-31278" transform="translate(-250, 0)"></use><use xlink:href="#transformed-31278" transform="translate(0, 0)"></use><use xlink:href="#transformed-31278" transform="translate(250, 0)"></use><use xlink:href="#transformed-31278" transform="translate(-250, 250)"></use><use xlink:href="#transformed-31278" transform="translate(0, 250)"></use><use xlink:href="#transformed-31278" transform="translate(250, 250)"></use><use xlink:href="#transformed-51361" transform="translate(-250, -250)"></use><use xlink:href="#transformed-51361" transform="translate(0, -250)"></use><use xlink:href="#transformed-51361" transform="translate(250, -250)"></use><use xlink:href="#transformed-51361" transform="translate(-250, 0)"></use><use xlink:href="#transformed-51361" transform="translate(0, 0)"></use><use xlink:href="#transformed-51361" transform="translate(250, 0)"></use><use xlink:href="#transformed-51361" transform="translate(-250, 250)"></use><use xlink:href="#transformed-51361" transform="translate(0, 250)"></use><use xlink:href="#transformed-51361" transform="translate(250, 250)"></use><use xlink:href="#transformed-58770" transform="translate(-250, -250)"></use><use xlink:href="#transformed-58770" transform="translate(0, -250)"></use><use xlink:href="#transformed-58770" transform="translate(250, -250)"></use><use xlink:href="#transformed-58770" transform="translate(-250, 0)"></use><use xlink:href="#transformed-58770" transform="translate(0, 0)"></use><use xlink:href="#transformed-58770" transform="translate(250, 0)"></use><use xlink:href="#transformed-58770" transform="translate(-250, 250)"></use><use xlink:href="#transformed-58770" transform="translate(0, 250)"></use><use xlink:href="#transformed-58770" transform="translate(250, 250)"></use><use xlink:href="#transformed-34852" transform="translate(-250, -250)"></use><use xlink:href="#transformed-34852" transform="translate(0, -250)"></use><use xlink:href="#transformed-34852" transform="translate(250, -250)"></use><use xlink:href="#transformed-34852" transform="translate(-250, 0)"></use><use xlink:href="#transformed-34852" transform="translate(0, 0)"></use><use xlink:href="#transformed-34852" transform="translate(250, 0)"></use><use xlink:href="#transformed-34852" transform="translate(-250, 250)"></use><use xlink:href="#transformed-34852" transform="translate(0, 250)"></use><use xlink:href="#transformed-34852" transform="translate(250, 250)"></use><use xlink:href="#transformed-73049" transform="translate(-250, -250)"></use><use xlink:href="#transformed-73049" transform="translate(0, -250)"></use><use xlink:href="#transformed-73049" transform="translate(250, -250)"></use><use xlink:href="#transformed-73049" transform="translate(-250, 0)"></use><use xlink:href="#transformed-73049" transform="translate(0, 0)"></use><use xlink:href="#transformed-73049" transform="translate(250, 0)"></use><use xlink:href="#transformed-73049" transform="translate(-250, 250)"></use><use xlink:href="#transformed-73049" transform="translate(0, 250)"></use><use xlink:href="#transformed-73049" transform="translate(250, 250)"></use><use xlink:href="#transformed-81381" transform="translate(-250, -250)"></use><use xlink:href="#transformed-81381" transform="translate(0, -250)"></use><use xlink:href="#transformed-81381" transform="translate(250, -250)"></use><use xlink:href="#transformed-81381" transform="translate(-250, 0)"></use><use xlink:href="#transformed-81381" transform="translate(0, 0)"></use><use xlink:href="#transformed-81381" transform="translate(250, 0)"></use><use xlink:href="#transformed-81381" transform="translate(-250, 250)"></use><use xlink:href="#transformed-81381" transform="translate(0, 250)"></use><use xlink:href="#transformed-81381" transform="translate(250, 250)"></use><use xlink:href="#transformed-90148" transform="translate(-250, -250)"></use><use xlink:href="#transformed-90148" transform="translate(0, -250)"></use><use xlink:href="#transformed-90148" transform="translate(250, -250)"></use><use xlink:href="#transformed-90148" transform="translate(-250, 0)"></use><use xlink:href="#transformed-90148" transform="translate(0, 0)"></use><use xlink:href="#transformed-90148" transform="translate(250, 0)"></use><use xlink:href="#transformed-90148" transform="translate(-250, 250)"></use><use xlink:href="#transformed-90148" transform="translate(0, 250)"></use><use xlink:href="#transformed-90148" transform="translate(250, 250)"></use></svg>